<svg xmlns="http://www.w3.org/2000/svg" width="24" height="32.727" viewBox="0 0 24 32.727">
  <g id="list" transform="translate(-64)">
    <g id="Group_3985" data-name="Group 3985" transform="translate(64)">
      <g id="Group_3984" data-name="Group 3984" transform="translate(0)">
        <path id="Path_2160" data-name="Path 2160" d="M88,6a.545.545,0,0,0-.155-.386L82.386.16A.538.538,0,0,0,82,0V0H65.636A1.636,1.636,0,0,0,64,1.636V31.091a1.636,1.636,0,0,0,1.636,1.636H86.364A1.636,1.636,0,0,0,88,31.091V6Zm-5.45-4.138,3.592,3.592H83.091a.545.545,0,0,1-.545-.545Zm4.364,29.229a.545.545,0,0,1-.545.545H65.636a.545.545,0,0,1-.545-.545V1.636a.545.545,0,0,1,.545-.545H81.455V4.909a1.636,1.636,0,0,0,1.636,1.636h3.818Z" transform="translate(-64)" fill="#fff"/>
      </g>
    </g>
    <g id="Group_3987" data-name="Group 3987" transform="translate(67.818 14.727)">
      <g id="Group_3986" data-name="Group 3986">
        <path id="Path_2161" data-name="Path 2161" d="M121.636,216a1.636,1.636,0,1,0,1.636,1.636A1.636,1.636,0,0,0,121.636,216Zm0,2.182a.545.545,0,1,1,.545-.545A.545.545,0,0,1,121.636,218.182Z" transform="translate(-120 -216)" fill="#fff"/>
      </g>
    </g>
    <g id="Group_3989" data-name="Group 3989" transform="translate(73.035 15.889)">
      <g id="Group_3988" data-name="Group 3988" transform="translate(0 0)">
        <rect id="Rectangle_1804" data-name="Rectangle 1804" width="11" height="1" transform="translate(-0.035 0.02)" fill="#fff"/>
      </g>
    </g>
    <g id="Group_3991" data-name="Group 3991" transform="translate(67.818 9.273)">
      <g id="Group_3990" data-name="Group 3990">
        <path id="Path_2162" data-name="Path 2162" d="M121.636,136a1.636,1.636,0,1,0,1.636,1.636A1.636,1.636,0,0,0,121.636,136Zm0,2.182a.545.545,0,1,1,.545-.545A.545.545,0,0,1,121.636,138.182Z" transform="translate(-120 -136)" fill="#fff"/>
      </g>
    </g>
    <g id="Group_3993" data-name="Group 3993" transform="translate(73.035 10.242)">
      <g id="Group_3992" data-name="Group 3992" transform="translate(0 0)">
        <rect id="Rectangle_1805" data-name="Rectangle 1805" width="11" height="1" transform="translate(-0.035 -0.333)" fill="#fff"/>
      </g>
    </g>
    <g id="Group_3995" data-name="Group 3995" transform="translate(67.818 20.182)">
      <g id="Group_3994" data-name="Group 3994">
        <path id="Path_2163" data-name="Path 2163" d="M121.636,296a1.636,1.636,0,1,0,1.636,1.636A1.636,1.636,0,0,0,121.636,296Zm0,2.182a.545.545,0,1,1,.545-.545A.545.545,0,0,1,121.636,298.182Z" transform="translate(-120 -296)" fill="#fff"/>
      </g>
    </g>
    <g id="Group_3997" data-name="Group 3997" transform="translate(73.035 21.536)">
      <g id="Group_3996" data-name="Group 3996" transform="translate(0 0)">
        <rect id="Rectangle_1806" data-name="Rectangle 1806" width="11" transform="translate(-0.035 0.373)" fill="#fff"/>
      </g>
    </g>
    <g id="Group_3999" data-name="Group 3999" transform="translate(67.818 25.636)">
      <g id="Group_3998" data-name="Group 3998">
        <path id="Path_2164" data-name="Path 2164" d="M121.636,376a1.636,1.636,0,1,0,1.636,1.636A1.636,1.636,0,0,0,121.636,376Zm0,2.182a.545.545,0,1,1,.545-.545A.545.545,0,0,1,121.636,378.182Z" transform="translate(-120 -376)" fill="#fff"/>
      </g>
    </g>
    <g id="Group_4001" data-name="Group 4001" transform="translate(73.035 26.618)">
      <g id="Group_4000" data-name="Group 4000" transform="translate(0 0)">
        <rect id="Rectangle_1807" data-name="Rectangle 1807" width="11" height="1" transform="translate(-0.035 0.291)" fill="#fff"/>
      </g>
    </g>
    <g id="Group_4065" data-name="Group 4065" transform="translate(73.035 20.889)">
      <g id="Group_3988-2" data-name="Group 3988" transform="translate(0 0)">
        <rect id="Rectangle_1804-2" data-name="Rectangle 1804" width="11" height="1" transform="translate(-0.035 0.02)" fill="#fff"/>
      </g>
    </g>
  </g>
</svg>
