<svg xmlns="http://www.w3.org/2000/svg" width="21" height="31.115" viewBox="0 0 21 31.115">
  <path id="person" d="M99.033,27.534V30.6A.519.519,0,1,1,98,30.6V27.534a4.312,4.312,0,0,0-4.315-4.315,3.184,3.184,0,0,1-2.739-1.538.519.519,0,0,1,.886-.539,2.154,2.154,0,0,0,1.853,1.04A5.349,5.349,0,0,1,99.033,27.534Zm-9.049-5.2a.519.519,0,0,1-.4.617,4.963,4.963,0,0,1-3.858-.755,3.144,3.144,0,0,1-2.346,1.02,4.312,4.312,0,0,0-4.315,4.315V30.6a.519.519,0,1,1-1.037,0V27.534a5.349,5.349,0,0,1,5.352-5.352,2.162,2.162,0,0,0,2.167-2.161v-.137a6.946,6.946,0,0,1-3.949-6,2.116,2.116,0,0,1-1.625-2.049V9.142a9.5,9.5,0,0,1,2.57-6.927c2.967-2.86,7.725-2.678,11.223-.994a.52.52,0,0,1,.11.864,7,7,0,0,1,4.283,3.081.573.573,0,0,1,.119.407.524.524,0,0,1-.149.329,3.386,3.386,0,0,0-.98,2.391V11.83a.519.519,0,0,1-1.037,0V8.293a4.414,4.414,0,0,1,1.007-2.819,5.99,5.99,0,0,0-4.3-2.524l-.911-.1a.519.519,0,0,1-.142-1l.414-.171c-5.4-1.882-11.171.209-11.171,7.449V11.83a1.071,1.071,0,0,0,.583.949V9.417a3.634,3.634,0,0,1,3.63-3.63h6.611a3.634,3.634,0,0,1,3.63,3.629v4.246a6.945,6.945,0,0,1-8.891,6.615,3.17,3.17,0,0,1-.271,1.059,3.927,3.927,0,0,0,3.061.6A.519.519,0,0,1,89.984,22.336Zm-1.451-2.815a5.9,5.9,0,0,0,5.9-5.9V9.417a2.6,2.6,0,0,0-2.593-2.592H85.227a2.6,2.6,0,0,0-2.593,2.593v4.206A5.9,5.9,0,0,0,88.533,19.522Zm5.25,8.936H92.227a.519.519,0,1,0,0,1.037h1.556a.519.519,0,0,0,0-1.037Z" transform="translate(-78.033 0)" fill="#40536c"/>
</svg>
