<svg xmlns="http://www.w3.org/2000/svg" viewBox="0 0 93 90" width="93" height="90">
	<defs>
		<clipPath clipPathUnits="userSpaceOnUse" id="cp1">
			<path d="M-2148 -740L1692 -740L1692 1602L-2148 1602Z" />
		</clipPath>
	</defs>
	<style>
		tspan { white-space:pre }
		.shp0 { fill: #172b4d } 
	</style>
	<g id="Page 1" clip-path="url(#cp1)">
		<path id="Path 95" class="shp0" d="M66 36L66 36L66 36L66 36L66 36ZM76.02 6.99L71.48 6.99L71.48 3.49C71.48 1.56 69.92 0 67.99 0C66.06 0 64.49 1.56 64.49 3.49L64.49 6.99L48.59 6.99L48.59 3.49C48.59 1.56 47.03 0 45.1 0C43.17 0 41.6 1.56 41.6 3.49L41.6 6.99L25.88 6.99L25.88 3.49C25.88 1.56 24.31 0 22.38 0C20.45 0 18.89 1.56 18.89 3.49L18.89 6.99L14.52 6.99C6.81 6.99 0.54 13.26 0.54 20.97L0.54 75.48C0.54 83.18 6.81 89.46 14.52 89.46L41.25 89.46C43.18 89.46 44.75 87.89 44.75 85.96C44.75 84.03 43.18 82.47 41.25 82.47L14.52 82.47C10.67 82.47 7.53 79.33 7.53 75.48L7.53 20.97C7.53 17.11 10.67 13.98 14.52 13.98L18.89 13.98L18.89 17.47C18.89 19.4 20.45 20.97 22.38 20.97C24.31 20.97 25.88 19.4 25.88 17.47L25.88 13.98L41.6 13.98L41.6 17.47C41.6 19.4 43.17 20.97 45.1 20.97C47.03 20.97 48.59 19.4 48.59 17.47L48.59 13.98L64.49 13.98L64.49 17.47C64.49 19.4 66.06 20.97 67.99 20.97C69.92 20.97 71.48 19.4 71.48 17.47L71.48 13.98L76.02 13.98C79.88 13.98 83.01 17.11 83.01 20.97L83.01 40.88C83.01 42.81 84.58 44.38 86.51 44.38C88.43 44.38 90 42.81 90 40.88L90 20.97C90 13.26 83.73 6.99 76.02 6.99Z" />
		<path id="Path 96" fill-rule="evenodd" class="shp0" d="M90 68.31C90 79.97 80.52 89.46 68.86 89.46C57.2 89.46 47.72 79.97 47.72 68.31C47.72 56.66 57.2 47.17 68.86 47.17C80.52 47.17 90 56.66 90 68.31ZM83.01 68.31C83.01 60.51 76.66 54.16 68.86 54.16C61.06 54.16 54.71 60.51 54.71 68.31C54.71 76.12 61.06 82.47 68.86 82.47C76.66 82.47 83.01 76.12 83.01 68.31ZM77.42 68.31C77.42 70.24 75.85 71.81 73.92 71.81L68.86 71.81C66.93 71.81 65.36 70.24 65.36 68.31L65.36 61.15C65.36 59.22 66.93 57.66 68.86 57.66C70.79 57.66 72.35 59.22 72.35 61.15L72.35 64.82L73.92 64.82C75.85 64.82 77.42 66.38 77.42 68.31ZM54 36L54 36L54 36L54 36ZM36 48C36 48 36 48.29 36 48.88C36 49.46 36 50.17 36 51C36 51.83 36 52.54 36 53.12C36 53.71 36 54 36 54C36 54 36 53.71 36 53.12C36 52.54 36 51.83 36 51C36 50.17 36 49.46 36 48.88C36 48.29 36 48 36 48ZM24 36L24 36L24 36L24 36ZM24 48C24 48 24 48.29 24 48.88C24 49.46 24 50.17 24 51C24 51.83 24 52.54 24 53.12C24 53.71 24 54 24 54C24 54 24 53.71 24 53.12C24 52.54 24 51.83 24 51C24 50.17 24 49.46 24 48.88C24 48.29 24 48 24 48ZM24 66L24 66L24 66L24 66ZM36 66L36 66L36 66L36 66ZM36 36L36 36L36 36L36 36Z" />
	</g>
</svg>