<svg xmlns="http://www.w3.org/2000/svg" width="23.418" height="25" viewBox="0 0 23.418 25">
  <g id="Group_4152" data-name="Group 4152" transform="translate(-247 -821)">
    <g id="Group_4036" data-name="Group 4036" transform="translate(253.423 837.767)">
      <g id="Group_4035" data-name="Group 4035" transform="translate(0)">
        <rect id="Rectangle_1815" data-name="Rectangle 1815" width="1.142" height="8.233" fill="#40536c"/>
      </g>
    </g>
    <g id="Group_4038" data-name="Group 4038" transform="translate(258.17 836.385)">
      <g id="Group_4037" data-name="Group 4037">
        <rect id="Rectangle_1816" data-name="Rectangle 1816" width="1.142" height="9.615" fill="#40536c"/>
      </g>
    </g>
    <g id="Group_4040" data-name="Group 4040" transform="translate(248.735 842.935)">
      <g id="Group_4039" data-name="Group 4039" transform="translate(0)">
        <rect id="Rectangle_1817" data-name="Rectangle 1817" width="1.082" height="3.065" fill="#40536c"/>
      </g>
    </g>
    <g id="Group_4042" data-name="Group 4042" transform="translate(262.858 832.899)">
      <g id="Group_4041" data-name="Group 4041">
        <rect id="Rectangle_1818" data-name="Rectangle 1818" width="1.142" height="13.101" fill="#40536c"/>
      </g>
    </g>
    <g id="Group_4044" data-name="Group 4044" transform="translate(267.605 829.774)">
      <g id="Group_4043" data-name="Group 4043" transform="translate(0)">
        <rect id="Rectangle_1819" data-name="Rectangle 1819" width="1.082" height="16.226" fill="#40536c"/>
      </g>
    </g>
    <g id="Group_4046" data-name="Group 4046" transform="translate(247 821)">
      <g id="Group_4045" data-name="Group 4045" transform="translate(0)">
        <path id="Path_2183" data-name="Path 2183" d="M36.406.162A.665.665,0,0,0,35.973,0H31.857a.6.6,0,1,0,0,1.2L34.513,1.2l-6.5,6.5-2.278-2.29a.582.582,0,0,0-.853,0L13.347,16.959a.6.6,0,1,0,.835.871c.006-.006.012-.012.018-.012L25.318,6.7,27.6,8.972a.615.615,0,0,0,.427.168.626.626,0,0,0,.427-.168l6.929-6.929-.006,2.65a.592.592,0,0,0,.595.595h.006a.592.592,0,0,0,.6-.589V4.694L36.58.583A.617.617,0,0,0,36.406.162Z" transform="translate(-13.162)" fill="#40536c"/>
      </g>
    </g>
  </g>
</svg>
