<svg xmlns="http://www.w3.org/2000/svg" width="37" height="36" viewBox="0 0 37 36">
  <g id="Group_4349" data-name="Group 4349" transform="translate(-680 -583)">
    <g id="Rectangle_1604" data-name="Rectangle 1604" transform="translate(680 583)" fill="#fefcf8" stroke="#c17900" stroke-width="1.5">
      <rect width="37" height="36" rx="18" stroke="none"/>
      <rect x="0.75" y="0.75" width="35.5" height="34.5" rx="17.25" fill="none"/>
    </g>
    <g id="time" transform="translate(688 595)">
      <path id="Path_2250" data-name="Path 2250" d="M15.584,12.528h-.648v-.864h-1.08V9.456a1.738,1.738,0,0,0-.775-1.449L10.789,6.48l2.291-1.528A1.738,1.738,0,0,0,13.856,3.5V1.3h1.08V.432h.648a.216.216,0,0,0,0-.432H5.216a.216.216,0,1,0,0,.432h.648V1.3h1.08V3.5a1.738,1.738,0,0,0,.775,1.449L10.011,6.48,7.719,8.008a1.738,1.738,0,0,0-.775,1.449v2.208H5.864v.864H5.216a.216.216,0,1,0,0,.432H15.584a.216.216,0,0,0,0-.432ZM6.3.864V.432H14.5V.864H6.3ZM7.959,4.593A1.307,1.307,0,0,1,7.376,3.5V1.3h6.048V3.5a1.307,1.307,0,0,1-.583,1.089L10.4,6.22ZM7.376,9.456a1.307,1.307,0,0,1,.583-1.089L10.4,6.74l2.441,1.627a1.307,1.307,0,0,1,.583,1.089v2.208H7.376ZM6.3,12.1H14.5v.432H6.3Z" fill="#b16f00"/>
      <path id="Path_2251" data-name="Path 2251" d="M18.63,14.066a.444.444,0,0,1-.2-.37v-.48a.216.216,0,1,0-.432,0v.48a.875.875,0,0,0,.391.73l1,.668a.216.216,0,0,0,.24-.359Z" transform="translate(-10.192 -10.192)" fill="#d48500"/>
      <path id="Path_2252" data-name="Path 2252" d="M35.337,38.7l-1-.668a.216.216,0,1,0-.24.359l1,.668a.444.444,0,0,1,.2.37v.48a.216.216,0,0,0,.432,0v-.48A.875.875,0,0,0,35.337,38.7Z" transform="translate(-22.735 -29.792)" fill="#d48500"/>
    </g>
  </g>
</svg>
