<svg xmlns="http://www.w3.org/2000/svg" width="30" height="20" viewBox="0 0 30 20">
  <g id="dashboard" transform="translate(0 -85.333)">
    <g id="Group_220" data-name="Group 220" transform="translate(0 85.333)">
      <g id="Group_219" data-name="Group 219">
        <path id="Path_496" data-name="Path 496" d="M242.379,213.495l-7.317,6.433c-.01.009-.02.017-.028.026a1.25,1.25,0,0,0,.883,2.135,1.267,1.267,0,0,0,.912-.4l6.433-7.317a.625.625,0,0,0-.883-.882Z" transform="translate(-220.917 -205.839)" fill="#40536c"/>
        <path id="Path_497" data-name="Path 497" d="M15,85.333A15,15,0,0,0,.713,104.9a.625.625,0,0,0,.6.435H28.691a.625.625,0,0,0,.6-.435A15,15,0,0,0,15,85.333Zm11.875,15.625h1.832a13.689,13.689,0,0,1-.479,3.125H1.772a13.69,13.69,0,0,1-.479-3.125H3.125a.625.625,0,1,0,0-1.25H1.282a13.643,13.643,0,0,1,1.52-5.7l1.6.925a.625.625,0,0,0,.625-1.083l-1.6-.923A13.841,13.841,0,0,1,7.6,88.763l.923,1.6A.625.625,0,1,0,9.6,89.737l-.924-1.6a13.643,13.643,0,0,1,5.7-1.521v1.843a.625.625,0,1,0,1.25,0V86.615a13.643,13.643,0,0,1,5.7,1.521l-.924,1.6a.625.625,0,1,0,1.082.625l.923-1.6a13.841,13.841,0,0,1,4.168,4.168l-1.6.923a.625.625,0,0,0,.625,1.083l1.6-.925a13.643,13.643,0,0,1,1.52,5.7H26.875a.625.625,0,1,0,0,1.25Z" transform="translate(0 -85.333)" fill="#40536c"/>
      </g>
    </g>
  </g>
</svg>
