<svg xmlns="http://www.w3.org/2000/svg" width="10.75" height="13.236" viewBox="0 0 10.75 13.236">
  <g id="bin" transform="translate(0.003 0.002)">
    <path id="Path_590" data-name="Path 590" d="M222.708,154.7a.31.31,0,0,0-.31.31v5.858a.31.31,0,0,0,.62,0v-5.858A.31.31,0,0,0,222.708,154.7Zm0,0" transform="translate(-215.507 -149.909)" fill="#ed4c4c"/>
    <path id="Path_591" data-name="Path 591" d="M104.708,154.7a.31.31,0,0,0-.31.31v5.858a.31.31,0,0,0,.62,0v-5.858A.31.31,0,0,0,104.708,154.7Zm0,0" transform="translate(-101.165 -149.909)" fill="#ed4c4c"/>
    <path id="Path_592" data-name="Path 592" d="M.877,3.939v7.637a1.71,1.71,0,0,0,.455,1.179,1.526,1.526,0,0,0,1.108.479H8.3a1.526,1.526,0,0,0,1.108-.479,1.71,1.71,0,0,0,.455-1.179V3.939a1.184,1.184,0,0,0-.3-2.329H7.975V1.223A1.218,1.218,0,0,0,6.748,0H4A1.218,1.218,0,0,0,2.768,1.223V1.61H1.181a1.184,1.184,0,0,0-.3,2.329ZM8.3,12.614H2.439A.982.982,0,0,1,1.5,11.576V3.966H9.246v7.61A.982.982,0,0,1,8.3,12.614ZM3.388,1.223A.6.6,0,0,1,4,.618H6.748a.6.6,0,0,1,.608.6V1.61H3.388ZM1.181,2.23H9.562a.558.558,0,1,1,0,1.116H1.181a.558.558,0,0,1,0-1.116Zm0,0" transform="translate(0 0)" fill="#ed4c4c"/>
    <path id="Path_593" data-name="Path 593" d="M163.708,154.7a.31.31,0,0,0-.31.31v5.858a.31.31,0,0,0,.62,0v-5.858A.31.31,0,0,0,163.708,154.7Zm0,0" transform="translate(-158.336 -149.909)" fill="#ed4c4c"/>
  </g>
</svg>
