<svg xmlns="http://www.w3.org/2000/svg" viewBox="0 0 300 300" width="300" height="300">
	<defs>
		<clipPath clipPathUnits="userSpaceOnUse" id="cp1">
			<path d="M-850 -1802L2990 -1802L2990 540L-850 540Z" />
		</clipPath>
	</defs>
	<style>
		tspan { white-space:pre }
		.shp0 { fill: #3976eb } 
		.shp1 { fill: #ffffff } 
	</style>
	<g id="Page 1" clip-path="url(#cp1)">
		<path id="Path 210" class="shp0" d="M150 0C154.91 0 159.81 0.24 164.7 0.72C169.59 1.2 174.44 1.92 179.26 2.88C184.08 3.84 188.84 5.03 193.54 6.46C198.24 7.88 202.86 9.54 207.4 11.42C211.94 13.3 216.38 15.4 220.71 17.71C225.04 20.03 229.25 22.55 233.34 25.28C237.42 28.01 241.36 30.93 245.16 34.05C248.96 37.16 252.59 40.46 256.07 43.93C259.54 47.41 262.83 51.04 265.95 54.84C269.07 58.64 271.99 62.58 274.72 66.66C277.45 70.75 279.97 74.96 282.29 79.29C284.6 83.62 286.7 88.06 288.58 92.6C290.46 97.14 292.11 101.76 293.54 106.46C294.97 111.16 296.16 115.92 297.12 120.74C298.08 125.55 298.8 130.41 299.28 135.3C299.76 140.19 300 145.09 300 150C300 154.91 299.76 159.81 299.28 164.7C298.8 169.59 298.08 174.44 297.12 179.26C296.16 184.08 294.97 188.84 293.54 193.54C292.11 198.24 290.46 202.86 288.58 207.4C286.7 211.94 284.6 216.38 282.29 220.71C279.97 225.04 277.45 229.25 274.72 233.34C271.99 237.42 269.07 241.36 265.95 245.16C262.83 248.96 259.54 252.59 256.07 256.07C252.59 259.54 248.96 262.83 245.16 265.95C241.36 269.07 237.42 271.99 233.34 274.72C229.25 277.45 225.04 279.97 220.71 282.29C216.38 284.6 211.94 286.7 207.4 288.58C202.86 290.46 198.24 292.11 193.54 293.54C188.84 294.97 184.08 296.16 179.26 297.12C174.44 298.08 169.59 298.8 164.7 299.28C159.81 299.76 154.91 300 150 300C145.09 300 140.19 299.76 135.3 299.28C130.41 298.8 125.55 298.08 120.74 297.12C115.92 296.16 111.16 294.97 106.46 293.54C101.76 292.11 97.14 290.46 92.6 288.58C88.06 286.7 83.62 284.6 79.29 282.29C74.96 279.97 70.75 277.45 66.66 274.72C62.58 271.99 58.64 269.07 54.84 265.95C51.04 262.83 47.41 259.54 43.93 256.07C40.46 252.59 37.16 248.96 34.05 245.16C30.93 241.36 28.01 237.42 25.28 233.34C22.55 229.25 20.03 225.04 17.71 220.71C15.4 216.38 13.3 211.94 11.42 207.4C9.54 202.86 7.88 198.24 6.46 193.54C5.03 188.84 3.84 184.08 2.88 179.26C1.92 174.44 1.2 169.59 0.72 164.7C0.24 159.81 0 154.91 0 150C0 145.09 0.24 140.19 0.72 135.3C1.2 130.41 1.92 125.55 2.88 120.74C3.84 115.92 5.03 111.16 6.46 106.46C7.88 101.76 9.54 97.14 11.42 92.6C13.3 88.06 15.4 83.62 17.71 79.29C20.03 74.96 22.55 70.75 25.28 66.66C28.01 62.58 30.93 58.64 34.05 54.84C37.16 51.04 40.46 47.41 43.93 43.93C47.41 40.46 51.04 37.16 54.84 34.05C58.64 30.93 62.58 28.01 66.66 25.28C70.75 22.55 74.96 20.03 79.29 17.71C83.62 15.4 88.06 13.3 92.6 11.42C97.14 9.54 101.76 7.88 106.46 6.46C111.16 5.03 115.92 3.84 120.74 2.88C125.55 1.92 130.41 1.2 135.3 0.72C140.19 0.24 145.09 0 150 0Z" />
		<path id="Path 211" fill-rule="evenodd" class="shp1" d="M187.5 115.87L187.5 198.99C187.5 201.98 185.07 204.41 182.08 204.41L113.42 204.41C110.43 204.41 108 201.98 108 198.99L108 101.42C108 98.43 110.43 96 113.42 96L167.62 96L167.62 96.02C168.1 96.01 168.56 96.19 168.9 96.53L186.97 114.6C187.3 114.94 187.49 115.4 187.48 115.87L187.5 115.87ZM183.89 117.68L171.24 117.68C168.24 117.68 165.82 115.25 165.82 112.26L165.82 99.61L113.42 99.61C112.42 99.61 111.61 100.42 111.61 101.42L111.61 198.99C111.61 199.99 112.42 200.8 113.42 200.8L182.08 200.8C183.08 200.8 183.89 199.99 183.89 198.99L183.89 117.68ZM169.43 112.26C169.43 113.26 170.24 114.07 171.24 114.07L181.33 114.07L169.43 102.17L169.43 112.26Z" />
		<path id="Path 212" fill-rule="evenodd" class="shp1" d="M131.49 150.21C131.49 153.2 129.06 155.63 126.07 155.63C123.07 155.63 120.65 153.2 120.65 150.21C120.65 147.21 123.07 144.79 126.07 144.79C129.06 144.79 131.49 147.21 131.49 150.21ZM127.87 150.21C127.87 149.21 127.07 148.4 126.07 148.4C125.07 148.4 124.26 149.21 124.26 150.21C124.26 151.2 125.07 152.01 126.07 152.01C127.07 152.01 127.87 151.2 127.87 150.21ZM131.49 132.13C131.49 135.13 129.06 137.56 126.07 137.56C123.07 137.56 120.65 135.13 120.65 132.13C120.65 129.14 123.07 126.71 126.07 126.71C129.06 126.71 131.49 129.14 131.49 132.13ZM127.87 132.13C127.87 131.14 127.07 130.33 126.07 130.33C125.07 130.33 124.26 131.14 124.26 132.13C124.26 133.13 125.07 133.94 126.07 133.94C127.07 133.94 127.87 133.13 127.87 132.13ZM138 126.41L174 126.41L174 132.41L138 132.41L138 126.41ZM131.49 168.27C131.49 171.27 129.06 173.69 126.07 173.69C123.07 173.69 120.65 171.27 120.65 168.27C120.65 165.28 123.07 162.85 126.07 162.85C129.06 162.85 131.49 165.28 131.49 168.27ZM127.87 168.27C127.87 167.28 127.07 166.47 126.07 166.47C125.07 166.47 124.26 167.28 124.26 168.27C124.26 169.27 125.07 170.08 126.07 170.08C127.07 170.08 127.87 169.27 127.87 168.27ZM131.49 186.34C131.49 189.33 129.06 191.76 126.07 191.76C123.07 191.76 120.65 189.33 120.65 186.34C120.65 183.35 123.07 180.92 126.07 180.92C129.06 180.92 131.49 183.35 131.49 186.34ZM127.87 186.34C127.87 185.34 127.07 184.53 126.07 184.53C125.07 184.53 124.26 185.34 124.26 186.34C124.26 187.34 125.07 188.15 126.07 188.15C127.07 188.15 127.87 187.34 127.87 186.34ZM138 150.41L174 150.41L174 150.41L138 150.41ZM138 168.41L174 168.41L174 168.41L138 168.41ZM138 186.41L174 186.41L174 186.41L138 186.41Z" />
	</g>
</svg>