<svg xmlns="http://www.w3.org/2000/svg" viewBox="0 0 54 54" width="54" height="54">
	<defs>
		<clipPath clipPathUnits="userSpaceOnUse" id="cp1">
			<path d="M-2886 -728L954 -728L954 1614L-2886 1614Z" />
		</clipPath>
	</defs>
	<style>
		tspan { white-space:pre }
		.shp0 { fill: #ffffff } 
		.shp1 { fill: #172b4d } 
	</style>
	<g id="Page 1" clip-path="url(#cp1)">
		<path id="Path 97" class="shp0" d="M27 0C28.77 0 30.53 0.17 32.27 0.52C34.01 0.86 35.69 1.38 37.33 2.06C38.97 2.73 40.53 3.57 42 4.55C43.47 5.54 44.84 6.65 46.09 7.91C47.35 9.16 48.46 10.53 49.45 12C50.43 13.47 51.27 15.03 51.94 16.67C52.62 18.31 53.14 19.99 53.48 21.73C53.83 23.47 54 25.23 54 27C54 28.77 53.83 30.53 53.48 32.27C53.14 34.01 52.62 35.69 51.94 37.33C51.27 38.97 50.43 40.53 49.45 42C48.46 43.47 47.35 44.84 46.09 46.09C44.84 47.35 43.47 48.46 42 49.45C40.53 50.43 38.97 51.27 37.33 51.94C35.69 52.62 34.01 53.14 32.27 53.48C30.53 53.83 28.77 54 27 54C25.23 54 23.47 53.83 21.73 53.48C19.99 53.14 18.31 52.62 16.67 51.94C15.03 51.27 13.47 50.43 12 49.45C10.53 48.46 9.16 47.35 7.91 46.09C6.65 44.84 5.54 43.47 4.55 42C3.57 40.53 2.73 38.97 2.06 37.33C1.38 35.69 0.86 34.01 0.52 32.27C0.17 30.53 0 28.77 0 27C0 25.23 0.17 23.47 0.52 21.73C0.86 19.99 1.38 18.31 2.06 16.67C2.73 15.03 3.57 13.47 4.55 12C5.54 10.53 6.65 9.16 7.91 7.91C9.16 6.65 10.53 5.54 12 4.55C13.47 3.57 15.03 2.73 16.67 2.06C18.31 1.38 19.99 0.86 21.73 0.52C23.47 0.17 25.23 0 27 0Z" />
		<path id="Path 98" class="shp1" d="M28.05 35.74C27.62 35.74 27.19 35.58 26.86 35.25L16.49 24.88C15.84 24.22 15.84 23.15 16.49 22.49C17.15 21.83 18.22 21.83 18.88 22.49L28.05 31.67L37.23 22.49C37.89 21.84 38.95 21.84 39.61 22.49C40.27 23.15 40.27 24.22 39.61 24.88L29.25 35.25C28.92 35.58 28.49 35.74 28.05 35.74Z" />
	</g>
</svg>