<svg id="logout" xmlns="http://www.w3.org/2000/svg" width="17" height="17" viewBox="0 0 17 17">
  <g id="Group_244" data-name="Group 244">
    <g id="Group_243" data-name="Group 243">
      <path id="Path_564" data-name="Path 564" d="M11.457,6.652a.37.37,0,0,0,.37-.37V1.848A1.85,1.85,0,0,0,9.978,0H1.848A1.85,1.85,0,0,0,0,1.848v13.3A1.85,1.85,0,0,0,1.848,17h8.13a1.85,1.85,0,0,0,1.848-1.848V10.717a.37.37,0,1,0-.739,0v4.435a1.11,1.11,0,0,1-1.109,1.109H1.848A1.11,1.11,0,0,1,.739,15.152V1.848A1.11,1.11,0,0,1,1.848.739h8.13a1.11,1.11,0,0,1,1.109,1.109V6.283A.37.37,0,0,0,11.457,6.652Z" fill="#fff"/>
    </g>
  </g>
  <g id="Group_246" data-name="Group 246" transform="translate(4.435 8.13)">
    <g id="Group_245" data-name="Group 245">
      <path id="Path_565" data-name="Path 565" d="M140.2,234.667H128.37a.37.37,0,1,0,0,.739H140.2a.37.37,0,1,0,0-.739Z" transform="translate(-128 -234.667)" fill="#fff"/>
    </g>
  </g>
  <g id="Group_248" data-name="Group 248" transform="translate(14.043 5.914)">
    <g id="Group_247" data-name="Group 247">
      <path id="Path_566" data-name="Path 566" d="M408.176,173.029l-2.217-2.217a.37.37,0,1,0-.523.523l1.956,1.956-1.956,1.956a.37.37,0,0,0,.523.523l2.217-2.217A.37.37,0,0,0,408.176,173.029Z" transform="translate(-405.328 -170.704)" fill="#fff"/>
    </g>
  </g>
</svg>
