<svg xmlns="http://www.w3.org/2000/svg" width="25.5" height="25.5" viewBox="0 0 25.5 25.5">
  <g id="surface1" transform="translate(-0.375 -0.001)">
    <path id="Path_585" data-name="Path 585" d="M15.155,11.991a.455.455,0,0,1,.211.119L21.858,18.6l1.175-1.175L16.54,10.936a.456.456,0,0,1-.12-.211L16.012,9.1,13.3,7.547,11.977,8.873l1.549,2.711Zm0,0" transform="translate(-11.429 -7.434)" fill="#40536c"/>
    <path id="Path_586" data-name="Path 586" d="M9.5,19.368l10.3-10.3a.454.454,0,0,1,.431-.12,4.519,4.519,0,0,0,5.64-4.4c0-.085,0-.171-.008-.258l-2.4,2.4a.454.454,0,0,1-.465.11L20.28,5.883a.453.453,0,0,1-.287-.287L19.084,2.87a.454.454,0,0,1,.11-.465l2.4-2.4a4.521,4.521,0,0,0-4.66,5.633.454.454,0,0,1-.119.432l-10.3,10.3a.458.458,0,0,1-.432.12,4.475,4.475,0,0,0-1.1-.141A4.573,4.573,0,1,0,9.38,19.8.455.455,0,0,1,9.5,19.368ZM6.084,22.714H3.873L2.782,20.9,3.873,19.08H6.084L7.174,20.9ZM7.837,17.4,17.831,7.4l.642.642L8.479,18.039Zm0,0" transform="translate(0 0)" fill="#40536c"/>
    <path id="Path_587" data-name="Path 587" d="M1459.5,1458.688a2.755,2.755,0,0,0,3.548-3.548Zm0,0" transform="translate(-1437.35 -1433.424)" fill="#40536c"/>
    <path id="Path_588" data-name="Path 588" d="M881.107,872.772l-5.1-5.1a1.418,1.418,0,0,1-2-2l-.723-.723-3.9,3.9.727.727a1.418,1.418,0,0,1,2,2l5.1,5.1c.056.056.114.107.174.157l3.884-3.884C881.214,872.886,881.162,872.828,881.107,872.772Zm-2.693,1.849-4.543-4.543.642-.642,4.543,4.543Zm0,0" transform="translate(-856.04 -852.04)" fill="#40536c"/>
  </g>
</svg>
