<svg xmlns="http://www.w3.org/2000/svg" width="23.555" height="28.25" viewBox="0 0 23.555 28.25">
  <g id="book" transform="translate(-41 0.203)">
    <ellipse id="Ellipse_427" data-name="Ellipse 427" cx="4.5" cy="5" rx="4.5" ry="5" transform="translate(48 -0.203)" fill="#fff"/>
    <path id="Path_1988" data-name="Path 1988" d="M148.983,181.515a6.287,6.287,0,0,1-6.843,0,9.577,9.577,0,0,0-2.979,1.82l6.4,2.4,6.4-2.4A9.576,9.576,0,0,0,148.983,181.515Z" transform="translate(-92.784 -171.572)" fill="#fff"/>
    <path id="Path_1989" data-name="Path 1989" d="M412.369,310h-.548a.822.822,0,0,0-.822.822v2.191a.822.822,0,0,0,.822.822h.548a1.917,1.917,0,0,0,0-3.835Z" transform="translate(-349.732 -293.018)" fill="#fff"/>
    <path id="Path_1990" data-name="Path 1990" d="M81.354,231.75a.822.822,0,0,0-.354.675v1.829h.274a2.468,2.468,0,0,1,2.465,2.465v2.191a2.468,2.468,0,0,1-2.465,2.465H81v1.731a.822.822,0,0,0,.533.769l8.231,3.087V234.527l-7.654-2.87A.821.821,0,0,0,81.354,231.75Z" transform="translate(-37.809 -218.917)" fill="#fff"/>
    <path id="Path_1991" data-name="Path 1991" d="M277.026,238.911V236.72a2.468,2.468,0,0,1,2.465-2.465h.274v-1.829a.822.822,0,0,0-1.11-.769L271,234.526v12.437l8.231-3.087a.822.822,0,0,0,.533-.769v-1.731h-.274A2.468,2.468,0,0,1,277.026,238.911Z" transform="translate(-217.401 -218.917)" fill="#fff"/>
    <path id="Path_1992" data-name="Path 1992" d="M44.287,313.013v-2.191a.822.822,0,0,0-.822-.822h-.548a1.917,1.917,0,1,0,0,3.835h.548A.822.822,0,0,0,44.287,313.013Z" transform="translate(0 -293.018)" fill="#fff"/>
  </g>
</svg>
