<svg xmlns="http://www.w3.org/2000/svg" width="27.855" height="27.856" viewBox="0 0 27.855 27.856">
  <g id="map" transform="translate(0 0)">
    <g id="Group_3642" data-name="Group 3642" transform="translate(0 0)">
      <path id="Path_1993" data-name="Path 1993" d="M26.865,0a1,1,0,0,0-.445.1l-7.539,3.77L10.356.086c-.014-.006-.03-.007-.045-.013a1,1,0,0,0-.117-.036,1.033,1.033,0,0,0-.12-.025,1.48,1.48,0,0,0-.243,0,1.033,1.033,0,0,0-.12.025,1,1,0,0,0-.117.036c-.015.006-.031.007-.045.013L.595,4.065A1,1,0,0,0,0,4.975V26.861a1,1,0,0,0,1.4.909l8.55-3.8,8.55,3.8c.015.006.031,0,.046.009a.878.878,0,0,0,.753-.017c.016-.007.034,0,.05-.011l7.959-3.979a1,1,0,0,0,.55-.89V1A1,1,0,0,0,26.865,0ZM8.957,22.235,1.994,25.33V5.621L8.957,2.526Zm8.953,3.095-6.964-3.095V2.526l6.964,3.095Zm7.959-3.063L19.9,25.251V5.589L25.87,2.6Z" transform="translate(-0.004 0)" fill="#172b4d"/>
    </g>
  </g>
</svg>
