<svg xmlns="http://www.w3.org/2000/svg" width="20.248" height="17.717" viewBox="0 0 20.248 17.717">
  <g id="notification" transform="translate(0 -27.706)">
    <path id="Path_479" data-name="Path 479" d="M69.65,41.031a4.4,4.4,0,0,1-.317-1.645V35.3a6.315,6.315,0,0,0-4.461-6.014,1.892,1.892,0,0,0-3.732,0A6.315,6.315,0,0,0,56.678,35.3v4.087a4.4,4.4,0,0,1-.317,1.645l-.9,2.259a.633.633,0,0,0,.588.868h4.81a2.46,2.46,0,0,0,4.3,0h4.81a.633.633,0,0,0,.588-.868l-.9-2.259ZM56.98,42.892l.557-1.392a5.668,5.668,0,0,0,.407-2.115V35.3a5.062,5.062,0,1,1,10.124,0v4.087a5.668,5.668,0,0,0,.407,2.115l.557,1.392Z" transform="translate(-52.882)" fill="#fff"/>
    <path id="Path_480" data-name="Path 480" d="M1.192,117.344a10.117,10.117,0,0,0,0,9.528l1.116-.6a8.856,8.856,0,0,1,0-8.337Z" transform="translate(0 -85.544)" fill="#fff"/>
    <path id="Path_481" data-name="Path 481" d="M393.883,117.344l-1.116.6a8.856,8.856,0,0,1,0,8.337l1.116.6a10.117,10.117,0,0,0,0-9.528Z" transform="translate(-374.827 -85.544)" fill="#fff"/>
  </g>
</svg>
