<svg xmlns="http://www.w3.org/2000/svg" width="15.253" height="10.4" viewBox="0 0 15.253 10.4">
  <g id="eye" transform="translate(0 -74.667)">
    <g id="Group_3889" data-name="Group 3889" transform="translate(0 74.667)">
      <g id="Group_3888" data-name="Group 3888" transform="translate(0 0)">
        <path id="Path_2143" data-name="Path 2143" d="M172.747,170.667a2.08,2.08,0,1,0,2.08,2.08A2.082,2.082,0,0,0,172.747,170.667Z" transform="translate(-165.12 -167.547)" fill="#172b4d"/>
        <path id="Path_2144" data-name="Path 2144" d="M7.627,74.667A8.2,8.2,0,0,0,0,79.867a8.193,8.193,0,0,0,15.253,0A8.2,8.2,0,0,0,7.627,74.667Zm0,8.667a3.467,3.467,0,1,1,3.467-3.467A3.468,3.468,0,0,1,7.627,83.334Z" transform="translate(0 -74.667)" fill="#172b4d"/>
      </g>
    </g>
  </g>
</svg>
