<svg xmlns="http://www.w3.org/2000/svg" width="26" height="26" viewBox="0 0 26 26">
  <g id="settings" transform="translate(0)">
    <path id="Path_482" data-name="Path 482" d="M13.816,26H12.184a2.4,2.4,0,0,1-2.394-2.393v-.552a10.5,10.5,0,0,1-1.63-.677l-.391.391a2.394,2.394,0,0,1-3.385,0L3.231,21.616a2.393,2.393,0,0,1,0-3.385l.391-.391a10.5,10.5,0,0,1-.677-1.63H2.393A2.4,2.4,0,0,1,0,13.816V12.184A2.4,2.4,0,0,1,2.394,9.791h.552a10.5,10.5,0,0,1,.677-1.63L3.231,7.77a2.394,2.394,0,0,1,0-3.385L4.385,3.231a2.393,2.393,0,0,1,3.385,0l.391.391a10.506,10.506,0,0,1,1.63-.677V2.393A2.4,2.4,0,0,1,12.184,0h1.632a2.4,2.4,0,0,1,2.393,2.393v.552a10.5,10.5,0,0,1,1.63.677l.391-.391a2.394,2.394,0,0,1,3.385,0l1.153,1.153a2.393,2.393,0,0,1,0,3.385l-.391.391a10.5,10.5,0,0,1,.677,1.63h.552A2.4,2.4,0,0,1,26,12.184v1.632a2.4,2.4,0,0,1-2.394,2.393h-.552a10.5,10.5,0,0,1-.677,1.63l.391.391a2.394,2.394,0,0,1,0,3.385l-1.153,1.153a2.393,2.393,0,0,1-3.385,0l-.391-.391a10.506,10.506,0,0,1-1.63.677v.552A2.4,2.4,0,0,1,13.816,26Zm-5.4-5.222a8.979,8.979,0,0,0,2.327.966.762.762,0,0,1,.571.738v1.125a.871.871,0,0,0,.87.87h1.632a.871.871,0,0,0,.87-.87V22.482a.762.762,0,0,1,.571-.738,8.979,8.979,0,0,0,2.327-.966.762.762,0,0,1,.926.117l.8.8a.87.87,0,0,0,1.23,0l1.154-1.154a.87.87,0,0,0,0-1.23l-.8-.8a.762.762,0,0,1-.117-.926,8.977,8.977,0,0,0,.966-2.327.762.762,0,0,1,.738-.571h1.125a.871.871,0,0,0,.87-.87V12.184a.871.871,0,0,0-.87-.87H22.482a.762.762,0,0,1-.738-.571,8.979,8.979,0,0,0-.966-2.327.762.762,0,0,1,.117-.926l.8-.8a.87.87,0,0,0,0-1.23L20.538,4.308a.87.87,0,0,0-1.23,0l-.8.8a.762.762,0,0,1-.926.117,8.979,8.979,0,0,0-2.327-.966.762.762,0,0,1-.571-.738V2.393a.871.871,0,0,0-.87-.87H12.184a.871.871,0,0,0-.87.87V3.518a.762.762,0,0,1-.571.738,8.979,8.979,0,0,0-2.327.966A.762.762,0,0,1,7.489,5.1l-.8-.8a.87.87,0,0,0-1.23,0L4.308,5.462a.87.87,0,0,0,0,1.23l.8.8a.762.762,0,0,1,.117.926,8.977,8.977,0,0,0-.966,2.327.762.762,0,0,1-.738.571H2.394a.871.871,0,0,0-.87.87v1.632a.871.871,0,0,0,.87.87H3.518a.762.762,0,0,1,.738.571,8.979,8.979,0,0,0,.966,2.327.762.762,0,0,1-.117.926l-.8.8a.87.87,0,0,0,0,1.23l1.154,1.154a.87.87,0,0,0,1.23,0l.8-.8A.765.765,0,0,1,8.415,20.778Z" fill="#40536c"/>
    <path id="Path_483" data-name="Path 483" d="M150.257,155.914a5.657,5.657,0,1,1,5.657-5.657A5.663,5.663,0,0,1,150.257,155.914Zm0-9.791a4.134,4.134,0,1,0,4.134,4.134A4.138,4.138,0,0,0,150.257,146.123Z" transform="translate(-137.257 -137.257)" fill="#40536c"/>
  </g>
</svg>
