<svg xmlns="http://www.w3.org/2000/svg" width="35.5" height="35.238" viewBox="0 0 35.5 35.238">
  <g id="slack" transform="translate(0 -1.892)">
    <g id="Group_4082" data-name="Group 4082" transform="translate(0 1.892)">
      <g id="Group_4081" data-name="Group 4081">
        <path id="Path_2192" data-name="Path 2192" d="M268.473,18.982h.006a3.482,3.482,0,0,0,3.479-3.479V5.371a3.482,3.482,0,0,0-6.963,0V15.5A3.482,3.482,0,0,0,268.473,18.982ZM266.381,5.371a2.1,2.1,0,0,1,4.19,0V15.5a2.094,2.094,0,0,1-2.092,2.092h-.006a2.094,2.094,0,0,1-2.092-2.092Z" transform="translate(-246.62 -1.892)" fill="#172b4d"/>
        <path id="Path_2193" data-name="Path 2193" d="M150.06,263.624h-.006a3.482,3.482,0,0,0-3.479,3.478v10.133a3.482,3.482,0,0,0,6.963,0V267.1A3.482,3.482,0,0,0,150.06,263.624Zm2.092,13.612a2.1,2.1,0,0,1-4.19,0V267.1a2.094,2.094,0,0,1,2.092-2.092h.006a2.094,2.094,0,0,1,2.092,2.092Z" transform="translate(-136.412 -245.477)" fill="#172b4d"/>
        <path id="Path_2194" data-name="Path 2194" d="M13.652,146.348H3.474a3.475,3.475,0,0,0,0,6.951H13.652a3.478,3.478,0,0,0,3.474-3.474v0A3.478,3.478,0,0,0,13.652,146.348Zm2.088,3.476a2.09,2.09,0,0,1-2.088,2.088H3.474a2.089,2.089,0,0,1,0-4.177H13.652a2.09,2.09,0,0,1,2.088,2.088v0Z" transform="translate(0 -136.332)" fill="#172b4d"/>
        <path id="Path_2195" data-name="Path 2195" d="M391.22,138.048h3a3.688,3.688,0,0,0,3.684-3.684v-.677a3.687,3.687,0,0,0-7.374,0v3.668A.693.693,0,0,0,391.22,138.048Zm.693-4.361a2.3,2.3,0,0,1,4.6,0v.677a2.3,2.3,0,0,1-2.3,2.3h-2.3Z" transform="translate(-363.449 -121.12)" fill="#172b4d"/>
        <path id="Path_2196" data-name="Path 2196" d="M21.8,265.974h-3a3.688,3.688,0,0,0-3.684,3.684v.677a3.687,3.687,0,0,0,7.374,0v-3.668A.693.693,0,0,0,21.8,265.974Zm-.693,4.361a2.3,2.3,0,0,1-4.6,0v-.677a2.3,2.3,0,0,1,2.3-2.3h2.3Z" transform="translate(-14.07 -247.664)" fill="#172b4d"/>
        <path id="Path_2197" data-name="Path 2197" d="M136.664,19.077h3a.693.693,0,0,0,.693-.693V14.716a3.687,3.687,0,0,0-7.374,0v.677A3.688,3.688,0,0,0,136.664,19.077Zm-2.3-4.361a2.3,2.3,0,0,1,4.6,0V17.69h-2.3a2.3,2.3,0,0,1-2.3-2.3Z" transform="translate(-123.76 -10.398)" fill="#172b4d"/>
        <path id="Path_2198" data-name="Path 2198" d="M276.357,384.945h-3a.693.693,0,0,0-.693.693v3.668a3.687,3.687,0,0,0,7.374,0v-.677A3.688,3.688,0,0,0,276.357,384.945Zm2.3,4.361a2.3,2.3,0,0,1-4.6,0v-2.974h2.3a2.3,2.3,0,0,1,2.3,2.3Z" transform="translate(-253.76 -358.386)" fill="#172b4d"/>
        <path id="Path_2199" data-name="Path 2199" d="M278.646,265.406H268.468a3.475,3.475,0,0,0,0,6.951h2.068a.693.693,0,0,0,0-1.387h-2.068a2.089,2.089,0,0,1,0-4.177h10.178a2.089,2.089,0,0,1,0,4.177H276.8a.693.693,0,1,0,0,1.387h1.841a3.475,3.475,0,0,0,0-6.951Z" transform="translate(-246.62 -247.135)" fill="#172b4d"/>
        <path id="Path_2200" data-name="Path 2200" d="M381.4,345.8a.693.693,0,1,0,.26.831.7.7,0,0,0-.26-.831Z" transform="translate(-353.954 -321.845)" fill="#172b4d"/>
      </g>
    </g>
  </g>
</svg>
