<svg xmlns="http://www.w3.org/2000/svg" width="26" height="22.547" viewBox="0 0 26 22.547">
  <g id="elearning" transform="translate(0 -36)">
    <circle id="Ellipse_364" data-name="Ellipse 364" cx="0.406" cy="0.406" r="0.406" transform="translate(15.438 40.672)" fill="#40536c"/>
    <ellipse id="Ellipse_365" data-name="Ellipse 365" cx="0.813" cy="0.406" rx="0.813" ry="0.406" transform="translate(12.188 40.672)" fill="#40536c"/>
    <circle id="Ellipse_366" data-name="Ellipse 366" cx="0.406" cy="0.406" r="0.406" transform="translate(9.75 40.672)" fill="#40536c"/>
    <path id="Path_511" data-name="Path 511" d="M25.492,54.281H23.715v-13.2a.508.508,0,0,0-.508-.508H19.6V38.031A2.034,2.034,0,0,0,17.57,36H8.43A2.034,2.034,0,0,0,6.4,38.031V40.57H2.793a.508.508,0,0,0-.508.508v13.2H.508A.508.508,0,0,0,0,54.789a3.559,3.559,0,0,0,3.555,3.555h7.16a.508.508,0,0,0,0-1.016H3.555A2.544,2.544,0,0,1,1.067,55.3H24.933a2.543,2.543,0,0,1-2.488,2.032h-7.16a.508.508,0,0,0,0,1.016h7.16A3.559,3.559,0,0,0,26,54.789.508.508,0,0,0,25.492,54.281ZM7.414,38.031A1.017,1.017,0,0,1,8.43,37.016H17.57a1.017,1.017,0,0,1,1.016,1.016v6.094a1.017,1.017,0,0,1-1.016,1.016H14.523a.508.508,0,0,0-.454.281L13,47.56l-1.069-2.138a.508.508,0,0,0-.454-.281H8.43a1.017,1.017,0,0,1-1.016-1.016ZM22.7,54.281H3.3v-12.7H6.4v2.539A2.034,2.034,0,0,0,8.43,46.156h2.733l1.383,2.766a.508.508,0,0,0,.908,0l1.383-2.766H17.57A2.034,2.034,0,0,0,19.6,44.125V41.586h3.1Z" fill="#40536c"/>
    <ellipse id="Ellipse_367" data-name="Ellipse 367" cx="0.813" cy="0.406" rx="0.813" ry="0.406" transform="translate(12.188 57.734)" fill="#40536c"/>
  </g>
</svg>
