<svg xmlns="http://www.w3.org/2000/svg" width="699.804" height="650" viewBox="0 0 699.804 650">
  <g id="Group_3684" data-name="Group 3684" transform="translate(-160.536 -5602.824)">
    <path id="Path_2062" data-name="Path 2062" d="M544.734,5683.819s48.072,87.03,150.624,82.923c96.544,3.606,187.88,32.85,159.839,128.993s-156.233,248.771-284.825,318.475-233.549,35.253-300.248-26.039-143.314-205.506-93.74-352.425S422.452,5488.727,544.734,5683.819Z" fill="#f4f7fe"/>
    <path id="Path_2063" data-name="Path 2063" d="M432.916,5838.537s116.424,26.439,209.961-30.445c0,0,29.454,208.711,131.748,305.655l-249.964,26.84S457,5994.369,432.916,5838.537Z" transform="translate(-62.842 -47.359)" fill="#fff"/>
    <path id="Path_2064" data-name="Path 2064" d="M501.914,5973.089s71.707-7.211,118.377-35.854l2.6,5.708s-28.042,33.351-120.981,36.555Z" transform="translate(-78.761 -77.154)" fill="#b1b1b1"/>
    <path id="Path_2065" data-name="Path 2065" d="M511.287,6002.55s76.114-9.813,117.776-34.851l2.8,5.207s-28.843,28.442-119.578,35.854Z" transform="translate(-80.924 -84.183)" fill="#b1b1b1"/>
    <path id="Path_2066" data-name="Path 2066" d="M519.1,6034.055s65.9-6.208,117.976-34.852l2.2,4.808s-29.244,31.847-120.179,36.053Z" transform="translate(-82.726 -91.451)" fill="#b1b1b1"/>
    <path id="Path_2067" data-name="Path 2067" d="M527.691,6060.613s70.5-7.411,118.978-34.852l2,5.007s-31.046,33.65-119.778,36.455Z" transform="translate(-84.708 -97.578)" fill="#b1b1b1"/>
    <path id="Path_2068" data-name="Path 2068" d="M536.543,6089.454s73.109-6.209,119.178-35.052l2.2,5.007s-41.061,35.453-121.381,36.455v-5.408" transform="translate(-86.751 -104.186)" fill="#e5e5e5"/>
    <path id="Path_2069" data-name="Path 2069" d="M665.095,6262.7l-108.762,42.664L538.1,6275.317S622.832,6274.917,665.095,6262.7Z" transform="translate(-87.111 -152.244)" fill="#e5e5e5"/>
    <path id="Path_2070" data-name="Path 2070" d="M501.914,5902.248s61.492,4.807,109.964-24.637l3.406,12.464s-54.281,28-113.369,24.59Z" transform="translate(-78.761 -63.398)" fill="#d7e3f9"/>
    <path id="Path_2071" data-name="Path 2071" d="M543.573,6276.89l15.526,26.223,86.776-33.45S582.761,6277.509,543.573,6276.89Z" transform="translate(-88.373 -153.85)" fill="#fff"/>
    <path id="Path_2072" data-name="Path 2072" d="M553.728,6139.815s38.357,4.707,46.569-22.334c0,0,38.858,60.39,76.414,78.117C676.711,6195.6,597.593,6187.286,553.728,6139.815Z" transform="translate(-90.716 -118.74)" fill="#e5e5e5"/>
    <path id="Path_2073" data-name="Path 2073" d="M698.5,6153.131l2.038,4.754s-83.561,53.779-208.175,37.735L393.079,5949.9l46.611-7.132S469.653,6177.2,698.5,6153.131Z" transform="translate(-53.651 -78.431)" fill="#65aaff"/>
    <path id="Path_2074" data-name="Path 2074" d="M697.444,6157.373l2.1,4.808s-86.228,54.381-214.82,38.157L382.274,5951.866l48.973-7.211S461.292,6181.709,697.444,6157.373Z" transform="translate(-51.158 -78.866)" fill="#3976eb"/>
    <path id="Path_2075" data-name="Path 2075" d="M669.592,5924.564l14.822-5.295,5.408,15.223L675.2,5939.9" transform="translate(-117.447 -73.009)" fill="#d7e3f9"/>
    <path id="Path_2076" data-name="Path 2076" d="M681.179,5955.028,696,5949.733l5.408,15.223-14.622,5.408" transform="translate(-120.121 -80.038)" fill="#d7e3f9"/>
    <path id="Path_2077" data-name="Path 2077" d="M690.552,5986.272l14.822-5.3,5.408,15.223-14.622,5.409" transform="translate(-122.283 -87.246)" fill="#d7e3f9"/>
    <path id="Path_2078" data-name="Path 2078" d="M700.446,6012.96l14.822-5.294,5.408,15.223-14.622,5.408" transform="translate(-124.566 -93.403)" fill="#d7e3f9"/>
    <path id="Path_2079" data-name="Path 2079" d="M711.642,6044.2l14.822-5.294,5.408,15.223-14.622,5.408" transform="translate(-127.149 -100.612)" fill="#d7e3f9"/>
    <path id="Path_2080" data-name="Path 2080" d="M673.974,5922.08l5.709,2.328,5.934-11.191,2.779,1.427-7.211,14.121-8.337-3.531" transform="translate(-118.198 -71.613)" fill="#43cd72"/>
    <path id="Path_2081" data-name="Path 2081" d="M685.349,5952.738l5.709,2.329,5.934-11.191,2.779,1.427-7.211,14.121-8.337-3.53" transform="translate(-120.823 -78.686)" fill="#43cd72"/>
    <path id="Path_2082" data-name="Path 2082" d="M695.454,5982.518l5.708,2.328,5.934-11.192,2.779,1.427-7.211,14.122-8.337-3.531" transform="translate(-123.154 -85.556)" fill="#43cd72"/>
    <path id="Path_2083" data-name="Path 2083" d="M704.828,6009.727l5.708,2.329,5.934-11.192,2.779,1.427-7.211,14.121-8.337-3.531" transform="translate(-125.317 -91.834)" fill="#43cd72"/>
    <path id="Path_2084" data-name="Path 2084" d="M775.858,6042.645s-12.519.6-14.021-7.361,6.159-8.612,15.022-1.6" transform="translate(-138.686 -98.288)" fill="#a96471"/>
    <path id="Path_2085" data-name="Path 2085" d="M732.9,6039.686l43.34-16.524s4.131-1.954,6.009.976a4.475,4.475,0,0,1-1.2,6.16c-.976.449-44.616,17.275-44.616,17.275Z" transform="translate(-132.052 -96.831)" fill="#223e67"/>
    <path id="Path_2086" data-name="Path 2086" d="M730.823,6044.833l-6.91,7.361,10.441.526" transform="translate(-129.98 -101.979)" fill="#e8c6c5"/>
    <path id="Path_2087" data-name="Path 2087" d="M723.945,6053.991l1.2-1.314.826,1.427Z" transform="translate(-129.987 -103.788)" fill="#223e67"/>
    <path id="Path_2088" data-name="Path 2088" d="M813.719,6009.423l11.4,21.641s0,2.165-2.9,0S810.018,6016.147,813.719,6009.423Z" transform="translate(-150.502 -93.809)" fill="#253d61"/>
    <path id="Path_2089" data-name="Path 2089" d="M850.56,6203.92a28.694,28.694,0,0,0,15.923-3.1s-1-14.221,2.6-18.829c3.209-5.151,8.134-14.421,8.124-24.636s.189-16.825,3.995-21.632,5.308-7.311,5.708-9.714c0,0-10.014,4.607-16.624,3.5,0,0-8.313,4.708-10.917,14.121s-11.817,48.874-11.817,48.874l.9,11.547Z" transform="translate(-158.506 -120.706)" fill="#e8996e"/>
    <path id="Path_2090" data-name="Path 2090" d="M828.13,6228.085s-11.518-9.815,3.5-9.014C831.634,6219.071,832.536,6225.18,828.13,6228.085Z" transform="translate(-153.051 -142.167)" fill="#253d63"/>
    <path id="Path_2091" data-name="Path 2091" d="M811.231,6210.49l9.114-1.4s7.11.3,8.012-10.816,4.706-36.554,4.706-36.554.7-10.115-1-13.821-1.7-7.711-.5-9.414,7.911-8.513,7.911-8.513l24.837-1.1s-1.3,8.012-4.606,11.517A17.128,17.128,0,0,0,854.7,6151.5c-.3,4.105-.2,22.634-6.409,35.053s-7.01,17.927-5.809,27.24a38.616,38.616,0,0,1-22.033,4.306C807.726,6216.8,811.231,6210.49,811.231,6210.49Z" transform="translate(-150.024 -121.367)" fill="#f8a66e"/>
    <path id="Path_2092" data-name="Path 2092" d="M851.736,6117.152s29.04,3.26,38.972-5.687c0,0-2.8-12.283,3.639-20.092s12.207-12.739,10.008-21.837L876,6081.743s-.227,5.232-2.653,7.355-22.014,24.035-22.014,24.035Z" transform="translate(-159.377 -107.678)" fill="#233f64"/>
    <path id="Path_2093" data-name="Path 2093" d="M797.363,6064.891s-17.877-2.053-14.873,7.461,18.494,0,18.494,0Z" transform="translate(-143.416 -106.564)" fill="#f7a56b"/>
    <path id="Path_2094" data-name="Path 2094" d="M836.5,6103.8l-1.4-15.023,23.235-24.336a5.456,5.456,0,0,0,1.7-6.109l30.646-13.02s-2.6-14.421-12.719-24.037-28.442-39.459-28.442-39.459-26.94-30.545-49.273-10.115c0,0-9.815,4.608-.8,19.429s16.625,28.643,16.625,28.643,1,3.605-2.8-1.3-4.506-5.308-4.506-5.308-7.612,7.712-27.642,5.709l-.5.1-.5,12.118,26.54-2.2s6.309-.4,2.9,2.1-13.42,9.915-13.42,9.915l5.709,10.917,20.13-15.323s4.406-2.9,4.306,1-1.6,26.039-6.21,33.148.8,11.718.8,11.718,1.9,1.2,1.2,4.507-1.8,9.916-1,10.616S836.5,6103.8,836.5,6103.8Z" transform="translate(-142.948 -83.483)" fill="#727b9a"/>
    <path id="Path_2095" data-name="Path 2095" d="M772.178,5958.325s.525,13.751,13.331,16.375C785.509,5974.7,786.978,5959.584,772.178,5958.325Z" transform="translate(-141.116 -82.019)" fill="#a7656d"/>
    <path id="Path_2096" data-name="Path 2096" d="M769.822,5947.451s-8.813-1.8-2.6-12.819c4.607-8.914,11.718-17.827,18.928-18.829s9.014-3,9.014-3,11.617-7.812,19.329,4.307,7.711,12.819,12.018,13.92,7.611,5.609,8.312,11.818,2.1,15.223,8.813,18.127,6.31,4.907,4.507,6.911-4.607,4.606-2.3,7.01,1.6,12.619-13.319,3.305-22.434-16.625-24.436-17.626-7.211-4.307-11.718-1-5.107,7.211-10.215,6.61c-2.866-.676-3.3-6.91-3.3-6.91S781.139,5947.951,769.822,5947.451Z" transform="translate(-139.46 -70.945)" fill="#243e63"/>
    <path id="Path_2097" data-name="Path 2097" d="M808.13,6234.166s-12.319-3.605-12.519,3.305,12.519,9.213,16.524,9.714,21.911,1.2,21.911,1.2,13.442,1.9,5.229-10.114l.1-.5a42.928,42.928,0,0,1-16.826,3.5C813.738,6241.077,808.631,6241.978,808.13,6234.166Z" transform="translate(-146.521 -145.444)" fill="#253d63"/>
    <path id="Path_2098" data-name="Path 2098" d="M851.441,6225.225s12.018,2,15.823-3.4c0,0,7.111,10.116-.5,10.116s-15.824-.9-15.824-.9Z" transform="translate(-159.287 -142.812)" fill="#253d63"/>
    <path id="Path_2099" data-name="Path 2099" d="M854.716,6025.295s14.522,8.271,25.538,14.581C880.254,6039.875,870.339,6026.738,854.716,6025.295Z" transform="translate(-160.158 -97.471)" fill="#676e8a"/>
    <path id="Path_2100" data-name="Path 2100" d="M840.656,6048.726s9.013-3.68,5.608-26.427c0,0,.8-1.689,1.5,0s4.907,22.02-6.71,28.229Z" transform="translate(-156.915 -96.606)" fill="#676e8a"/>
    <path id="Path_2101" data-name="Path 2101" d="M841.063,6011.225s1-2.4-.9-7.21-6.41-13.821-6.41-13.821-.3-2.9,2.2,1.4,7.024,12.118,7.317,15.522S843.066,6014.73,841.063,6011.225Z" transform="translate(-155.319 -89.151)" fill="#676e8a"/>
    <path id="Path_2102" data-name="Path 2102" d="M863.8,6082.254s-2.4-15.724-1.7-21.733C862.1,6060.521,865.7,6075.443,863.8,6082.254Z" transform="translate(-161.832 -105.598)" fill="#676e8a"/>
    <path id="Path_2103" data-name="Path 2103" d="M852.934,6061.953s1.9,2.954,1,5.833-6.51,15.1-6.61,21.808,2,36.655,2,36.655-9.214-2.4-10.616-2.8-3-2.9-3-2.9,3.1-20.932,5.307-26.44a162.916,162.916,0,0,0,6.711-20.43A34.024,34.024,0,0,1,852.934,6061.953Z" transform="translate(-155.773 -105.928)" fill="#676e8a"/>
    <path id="Path_2104" data-name="Path 2104" d="M749.71,5707.625s-71.507-36.955-51.377-62.793S813.705,5625,842.248,5670.971C862.679,5709.428,831.432,5748.786,749.71,5707.625Z" transform="translate(-123.254 -6.181)" fill="#f4f7fe"/>
    <g id="Group_3683" data-name="Group 3683" transform="translate(265.468 5770.648)">
      <path id="Path_2105" data-name="Path 2105" d="M349.183,5994s-8.864,6.459-17.877-1.8c0,0,8.263-7.662,17.877-1.052,0,0,2.253-12.77,13.369-10.816C362.553,5980.331,361.925,5992.518,349.183,5994Z" transform="translate(-304.867 -5857.698)" fill="#ccd3e2"/>
      <path id="Path_2106" data-name="Path 2106" d="M344.221,5977.848s-6.71,6.5-16.625-1.054c0,0,6.51-8.46,16.224-1.25,0,0,4.206-12.618,14.422-9.313C358.242,5966.232,358.375,5977.264,344.221,5977.848Z" transform="translate(-304.011 -5854.365)" fill="#ccd3e2"/>
      <path id="Path_2107" data-name="Path 2107" d="M341.487,5962.8s-11.717-.5-15.323-12.017c0,0,8.212-1.6,14.722,8.112,0,0,5.208-12.319,12.619-12.418A16.843,16.843,0,0,1,341.487,5962.8Z" transform="translate(-303.681 -5849.935)" fill="#ccd3e2"/>
      <path id="Path_2108" data-name="Path 2108" d="M338.153,5946.52s-11.818-4.306-14.723-13.921c0,0,8.413-1.4,14.723,11.017,0,0,5.307-14.222,12.318-14.322C350.47,5929.294,347.466,5944.016,338.153,5946.52Z" transform="translate(-303.05 -5845.97)" fill="#ccd3e2"/>
      <path id="Path_2109" data-name="Path 2109" d="M337.021,5930.777A28.22,28.22,0,0,1,322,5917.457s8.313-.9,14.021,8.112c0,0,5.508-12.318,11.618-12.419C347.637,5913.15,350.14,5924.367,337.021,5930.777Z" transform="translate(-302.72 -5842.245)" fill="#ccd3e2"/>
      <path id="Path_2110" data-name="Path 2110" d="M336.379,5913.533s-10.115-6.31-10.215-15.323c0,0,5.683,1.3,10.4,11.217,0,0,4.52-10.315,9.627-12.419,0,0-1.795,14.6-10.015,16.024" transform="translate(-303.681 -5838.52)" fill="#ccd3e2"/>
      <path id="Path_2111" data-name="Path 2111" d="M334.717,5896.642S324.4,5891.09,322,5881.977c0,0,6.21,1.3,12.219,11.718,0,0,1.9-10.816,8.212-14.522C342.429,5879.172,341.427,5893.181,334.717,5896.642Z" transform="translate(-302.72 -5834.406)" fill="#ccd3e2"/>
      <path id="Path_2112" data-name="Path 2112" d="M333.185,5880.285s-6.51-1.2-8.713-13.921a19.077,19.077,0,0,1,8.312,9.915s.9-9.313,6.61-13.119C339.394,5863.16,340.751,5876.086,333.185,5880.285Z" transform="translate(-303.291 -5830.711)" fill="#ccd3e2"/>
      <path id="Path_2113" data-name="Path 2113" d="M329.159,5863.4s-11.417-5.508-11.717-17.326c0,0,9.514,12.651,11.717,15.689,0,0,.2-15.289-1.4-19.7C327.757,5842.069,334.768,5856.492,329.159,5863.4Z" transform="translate(-301.669 -5825.845)" fill="#ccd3e2"/>
      <path id="Path_2114" data-name="Path 2114" d="M321.118,5842.25s-12.819-3.093-16.825-12.007c0,0,13.119,9.114,16.825,11.017,0,0-4.206-12.819-8.412-18.327,0,0,11.388,10.971,8.648,19.856" transform="translate(-298.635 -5821.43)" fill="#ccd3e2"/>
      <path id="Path_2115" data-name="Path 2115" d="M314.063,5833.1s-10.415-10.616-17.125-12.118C296.938,5820.98,310.357,5822.983,314.063,5833.1Z" transform="translate(-296.938 -5820.98)" fill="#ccd3e2"/>
      <path id="Path_2116" data-name="Path 2116" d="M355.317,6007.574s-5.709,8.913-16.525,6.108c0,0,4.506-11.316,15.924-8.012a15.073,15.073,0,0,1,16.023-8.212s-4.206,13.42-14.922,9.814" transform="translate(-306.594 -5861.655)" fill="#ccd3e2"/>
      <path id="Path_2117" data-name="Path 2117" d="M347.515,6028.792s4.306-10.389,15.323-8.4a14.026,14.026,0,0,1,15.023-7.325s-.475,8.8-13.708,9.356C364.152,6022.424,358.731,6033.5,347.515,6028.792Z" transform="translate(-308.607 -5865.248)" fill="#ccd3e2"/>
      <path id="Path_2118" data-name="Path 2118" d="M363.918,6047.381s10.015,1.4,12.118-11.417c0,0,9.214,2.053,9.915-11.993,0,0-10.015.7-11.017,10.4C374.934,6034.373,364.619,6030.355,363.918,6047.381Z" transform="translate(-312.391 -5867.813)" fill="#ccd3e2"/>
      <path id="Path_2119" data-name="Path 2119" d="M380.992,6060.258s9.614,1.5,9.715-10.716c0,0,6.81,2.773,8.112-10.381,0,0-7.753-2.082-8.913,7.877C389.906,6047.038,380.091,6046.036,380.992,6060.258Z" transform="translate(-316.317 -5871.276)" fill="#ccd3e2"/>
      <path id="Path_2120" data-name="Path 2120" d="M401.056,6072.772s5.608-2.7,3.806-10.916c0,0,2.1-1.39.8-9.008,0,0-4.206.193-4.106,5.6C401.557,6058.45,394.447,6060.354,401.056,6072.772Z" transform="translate(-320.311 -5874.476)" fill="#ccd3e2"/>
      <path id="Path_2121" data-name="Path 2121" d="M317.442,5834.519s11.417,8.1,16.224,51.821,3.6,89.389,53.78,125.744" transform="translate(-301.669 -5824.104)" fill="none" stroke="#ccd3e2" stroke-miterlimit="10" stroke-width="0.5"/>
    </g>
    <path id="Path_2122" data-name="Path 2122" d="M397.448,5994.386l-4.89,1.1,38.658,93.592-33.25-49.721,57.886,95.737Z" transform="translate(-53.531 -90.339)" fill="#e5e5e5"/>
    <path id="Path_2123" data-name="Path 2123" d="M390.253,5995.363l-19.825,7.683,60.19,94.068Z" transform="translate(-48.425 -90.565)" fill="#fff"/>
    <path id="Path_2124" data-name="Path 2124" d="M295.961,6277.484c0-2.738,15.335-4.958,34.252-4.958s34.251,2.22,34.251,4.958-15.335,4.958-34.251,4.958S295.961,6280.221,295.961,6277.484Z" transform="translate(-31.245 -154.511)" fill="#cbd2e4"/>
    <path id="Path_2125" data-name="Path 2125" d="M320.413,6216.337s-2.654-.075-2.452-1.3c0,0,.049-.551.9-.25s1.6.851,1.552-.651.751-1.6,1-.9S321.966,6215.886,320.413,6216.337Z" transform="translate(-36.318 -140.734)" fill="#ffd757"/>
    <path id="Path_2126" data-name="Path 2126" d="M358.359,6215.6s-.435-2.367,1.469-2.356c0,0,.545.087.187.915s-.96,1.54.542,1.595,1.547.859.83,1.061S358.7,6217.181,358.359,6215.6Z" transform="translate(-45.631 -140.834)" fill="#ffd757"/>
    <path id="Path_2127" data-name="Path 2127" d="M342.828,6226.473a33.559,33.559,0,0,1,4.356-6.61c3.155-3.906,4.281-6.835,3-11.192a18.715,18.715,0,0,1,5.784,7.812c1.727,4.807-.676,5.183-2.329,5.333s-5.633,1.653-6.31,4.658Z" transform="translate(-42.058 -139.779)" fill="#3eca6f"/>
    <path id="Path_2128" data-name="Path 2128" d="M329.2,6226.464s-2.329-3.831-6.46-4.432-4.131-2.854-2.4-6.009,5.708-7.811,5.708-7.361-.9,5.784.752,7.812,6.384,7.511,6.76,9.689" transform="translate(-36.617 -139.769)" fill="#3eca6f"/>
    <path id="Path_2129" data-name="Path 2129" d="M320.026,6231.324h29.894s3.53-.076,3,3-3.38,27.792-3.38,27.792a4.906,4.906,0,0,1-5.333,4.582c-5.107-.076-16.374,0-16.374,0s-6.31.75-6.91-3.981-3.3-29.219-3.3-29.219S317.021,6231.324,320.026,6231.324Z" transform="translate(-36.231 -145.005)" fill="#243e63"/>
  </g>
</svg>
