<svg xmlns="http://www.w3.org/2000/svg" viewBox="0 0 66 42" width="66" height="42">
	<defs>
		<clipPath clipPathUnits="userSpaceOnUse" id="cp1">
			<path d="M-3210 -128L630 -128L630 2214L-3210 2214Z" />
		</clipPath>
	</defs>
	<style>
		tspan { white-space:pre }
		.shp0 { fill: #ffffff } 
	</style>
	<g id="Page 1" clip-path="url(#cp1)">
		<path id="Path 60" class="shp0" d="M64.44 4.93L62.34 2.82C61.68 2.16 60.81 1.79 59.87 1.79C58.93 1.79 58.05 2.16 57.39 2.82L33.48 26.73L9.55 2.79C8.89 2.13 8.01 1.77 7.07 1.77C6.13 1.77 5.25 2.13 4.6 2.79L2.5 4.89C1.13 6.25 1.13 8.47 2.5 9.84L31 38.44C31.66 39.1 32.53 39.56 33.48 39.56L33.49 39.56C34.43 39.56 35.31 39.1 35.97 38.44L64.44 9.91C65.1 9.26 65.46 8.35 65.46 7.41C65.46 6.48 65.1 5.58 64.44 4.93Z" />
	</g>
</svg>